<svg xmlns="http://www.w3.org/2000/svg" xmlns:xlink="http://www.w3.org/1999/xlink" width="137.519" height="33.749" viewBox="0 0 137.519 33.749"><defs><clipPath id="a"><rect width="137.519" height="33.749" fill="none"></rect></clipPath></defs><g clip-path="url(#a)"><path d="M131.879,33.749H5.64A5.64,5.64,0,0,1,0,28.11V5.64A5.64,5.64,0,0,1,5.64,0h126.24a5.639,5.639,0,0,1,5.639,5.64V28.11a5.639,5.639,0,0,1-5.639,5.639" fill="#ab9ff3"></path><path d="M119.942,64.581c-.243.292-.441.551-.66.791a7.117,7.117,0,0,1-3.7,2.367c-1.98.444-3.133-.449-3.209-2.468,0-.12-.027-.239-.061-.521-.239.286-.392.465-.54.648a9.633,9.633,0,0,1-4.271,3.4,8.057,8.057,0,0,1-2.7.387c-1.556-.037-2.511-1.192-2.614-2.909a10.915,10.915,0,0,1,1.278-5.642c3.051-6.017,7.561-10.454,14.038-12.682a10.9,10.9,0,0,1,4.966-.511,6.587,6.587,0,0,1,6.045,6.419,14.267,14.267,0,0,1-3.072,10.23,12.82,12.82,0,0,1-1.9,1.714,2.191,2.191,0,0,1-.614.313c-1.581.631-2.543.161-2.982-1.536m2.486-9.986a6.733,6.733,0,0,0,.338,1.045,1.187,1.187,0,0,0,1.987.248,2.065,2.065,0,0,0,.04-2.445,1.216,1.216,0,0,0-1.943.067,5.227,5.227,0,0,0-.421,1.085m-1.576.1a6.709,6.709,0,0,0-.209-.882,1.173,1.173,0,0,0-1.155-.81,1.057,1.057,0,0,0-1.136.812,4.427,4.427,0,0,0,.045,1.767,1.021,1.021,0,0,0,1.063.733,1.16,1.16,0,0,0,1.141-.736,6.5,6.5,0,0,0,.252-.883" transform="translate(-89.313 -41.393)" fill="#fff"></path><path d="M867.155,94.461c.188-.356.373-.714.563-1.069a3.169,3.169,0,0,1,3.127-1.9,2.318,2.318,0,0,1,2.449,2.6.612.612,0,0,0,.142.429c.145-.313.284-.629.436-.938a3.292,3.292,0,0,1,3.584-2.08,2.319,2.319,0,0,1,2.148,1.4,7.228,7.228,0,0,1,.588,2.414c.084,1.988.019,3.981.041,5.973.006.542-.188.763-.734.735a15.269,15.269,0,0,0-1.7,0c-.553.033-.749-.216-.746-.737.008-1.488.01-2.977-.007-4.465a5.775,5.775,0,0,0-.142-1.617,1.448,1.448,0,0,0-.775-.92,1.57,1.57,0,0,0-1.216.394,3.794,3.794,0,0,0-.98,2.713c-.065,1.255-.031,2.514-.05,3.771-.012.8-.068.848-.871.854-.524,0-1.049-.022-1.571.006-.54.029-.751-.184-.743-.73.02-1.509.014-3.018,0-4.527a10.656,10.656,0,0,0-.117-1.439c-.072-.493-.251-.958-.807-1.087a1.321,1.321,0,0,0-1.4.507,4.321,4.321,0,0,0-.854,2.647c-.052,1.277-.048,2.557-.035,3.835.006.591-.217.838-.819.8a13.638,13.638,0,0,0-1.634,0c-.543.028-.742-.194-.738-.734.017-2.054.005-4.108.005-6.163,0-.9.013-1.8,0-2.7-.007-.451.185-.656.634-.65.649.008,1.3.005,1.949,0,.44,0,.622.226.543.638-.106.554-.246,1.1-.366,1.652a3,3,0,0,0-.036.344l.126.05" transform="translate(-755.571 -79.977)" fill="#fff"></path><path d="M346.114,99.45a.486.486,0,0,0,0,.176c.718,1.685.48,3.464.524,5.216.013.526-.236.711-.723.7-.545-.01-1.09.008-1.635,0-.728-.013-.826-.107-.827-.855q-.008-5.158,0-10.316c0-.671.011-1.342,0-2.013-.006-.476.207-.689.684-.678.608.014,1.216.013,1.824,0,.586-.012.745.287.608.8a9.74,9.74,0,0,0-.375,1.8c.179-.282.354-.567.537-.846a3.958,3.958,0,0,1,6.769-.281,6.907,6.907,0,0,1,.153,7.109,3.93,3.93,0,0,1-6.794.125c-.223-.322-.421-.66-.631-.991l-.116.048m5.134-2.648.091-.024a9.274,9.274,0,0,0-.428-1.55,2.031,2.031,0,0,0-3.038-.763,2.829,2.829,0,0,0-1.22,2.234,2.713,2.713,0,0,0,2.383,2.888c1.3.036,2.189-1.039,2.211-2.66,0-.042,0-.084,0-.125" transform="translate(-300.245 -79.887)" fill="#fff"></path><path d="M441.279,72.815c.11-.18.214-.363.33-.54a13.5,13.5,0,0,1,.978-1.454,3.4,3.4,0,0,1,3.573-.946,2.8,2.8,0,0,1,2.154,2.372,11.5,11.5,0,0,1,.261,2.177c.038,1.676,0,3.353.02,5.029.006.595-.177.907-.832.846-.457-.042-.921-.006-1.382-.008-.948,0-.958-.012-.961-.935,0-1.425.007-2.85-.007-4.275a10.407,10.407,0,0,0-.109-1.376,1.3,1.3,0,0,0-1.967-1.11A2.235,2.235,0,0,0,442,74.1a10.28,10.28,0,0,0-.405,2.211c-.068,1.086-.032,2.178-.02,3.268.005.491-.164.741-.693.719-.628-.026-1.257-.017-1.885,0-.429.008-.612-.194-.6-.608,0-.23-.006-.461-.006-.691q0-5.69,0-11.379c0-.953.029-.976,1-.98.5,0,1.006.016,1.508,0,.48-.017.692.188.68.668-.043,1.752.2,3.527-.423,5.233a.705.705,0,0,0,0,.227l.13.056" transform="translate(-383.239 -58.248)" fill="#fff"></path><path d="M533.188,99.517c-.276.374-.537.759-.831,1.118a3.8,3.8,0,0,1-4.086,1.419,3.175,3.175,0,0,1-2.429-3.652,2.579,2.579,0,0,1,1.868-2.026,20.756,20.756,0,0,1,2.826-.516,14.419,14.419,0,0,0,1.608-.23.836.836,0,0,0,.3-1.515,2.136,2.136,0,0,0-3.077.509.663.663,0,0,1-.84.416c-.6-.114-1.2-.213-1.8-.3-.489-.074-.567-.329-.394-.756a3.883,3.883,0,0,1,2.164-2.166,7.073,7.073,0,0,1,4.622-.282,3.357,3.357,0,0,1,2.511,2.491,7.89,7.89,0,0,1,.309,1.917c.043,1.718.008,3.439.023,5.158,0,.525-.184.772-.737.744-.606-.03-1.216-.019-1.823-.005-.425.01-.579-.192-.495-.583.079-.368.188-.73.285-1.094.05-.188.1-.375.156-.562l-.16-.08m-.375-2.124c-1.11.176-2.073.319-3.032.486-.5.088-.86.352-.833.924a.96.96,0,0,0,.913.948,2.426,2.426,0,0,0,2.6-1.236,6.607,6.607,0,0,0,.354-1.123" transform="translate(-459.641 -79.792)" fill="#fff"></path><path d="M774.969,91.543a5.3,5.3,0,0,1,5.441,5.444,5.381,5.381,0,0,1-5.546,5.442,5.449,5.449,0,0,1-5.472-5.548,5.364,5.364,0,0,1,5.577-5.338m2.308,5.463a13.556,13.556,0,0,0-.45-1.572,1.964,1.964,0,0,0-1.924-1.265,1.992,1.992,0,0,0-1.886,1.24,3.535,3.535,0,0,0,.076,3.263,2.046,2.046,0,0,0,3.6.062,9.142,9.142,0,0,0,.588-1.728" transform="translate(-672.603 -80.027)" fill="#fff"></path><path d="M619.21,94.283a4.412,4.412,0,0,0,.27-.364c.184-.3.344-.625.535-.925a3.506,3.506,0,0,1,4.054-1.666,3.127,3.127,0,0,1,2.356,3.138c.124,2.216.095,4.441.13,6.661.007.431-.171.66-.639.645-.628-.02-1.258-.022-1.886,0-.5.017-.658-.212-.654-.682q.019-2.39,0-4.78a7.124,7.124,0,0,0-.107-1.186,1.262,1.262,0,0,0-1.948-1.025,2.72,2.72,0,0,0-1.2,1.2,7.5,7.5,0,0,0-.551,2.362c-.091,1.1-.044,2.221-.027,3.332.008.548-.174.818-.763.782a15.037,15.037,0,0,0-1.7,0c-.553.029-.741-.218-.735-.745.016-1.363,0-2.726,0-4.088,0-1.531.02-3.062-.008-4.592-.012-.634.237-.871.855-.835.564.033,1.132.018,1.7.009.5-.008.692.251.617.712s-.188.944-.289,1.414c-.041.192-.094.381-.142.572l.131.061" transform="translate(-538.805 -79.726)" fill="#fff"></path><path d="M705.272,81.189c0-.692-.013-1.384,0-2.076.012-.5-.19-.751-.705-.719-.146.009-.294-.012-.44,0-.506.038-.745-.186-.715-.7.009-.146,0-.293,0-.44,0-1.323-.005-1.336,1.3-1.448.444-.038.567-.273.564-.663-.008-1.183-.118-1.07,1.16-1.459.481-.147.969-.272,1.449-.421.386-.12.562.033.572.411.014.5.019,1.006.022,1.509a.542.542,0,0,0,.615.618c.5,0,1.006.01,1.509.016a.475.475,0,0,1,.535.545c0,.021,0,.042,0,.063-.006,2.389.25,1.915-1.824,1.967-.75.019-.834.088-.84.834q-.012,1.573,0,3.146c.007,1.071.473,1.463,1.542,1.314.871-.121.871-.121.876.752,0,.147,0,.294,0,.44,0,1.337,0,1.42-1.326,1.479a6.717,6.717,0,0,1-2.51-.353,2.783,2.783,0,0,1-1.755-2.741c-.036-.69-.006-1.384-.006-2.076h-.021" transform="translate(-614.923 -64.013)" fill="#fff"></path></g></svg>