<svg xmlns="http://www.w3.org/2000/svg" xmlns:xlink="http://www.w3.org/1999/xlink" width="128.532" height="20.882" viewBox="0 0 128.532 20.882"><defs><clipPath id="a"><rect width="128.532" height="20.882" fill="none"></rect></clipPath></defs><g clip-path="url(#a)"><path d="M869.809,14.954c.011-.249.033-.5.033-.748q0-5.6,0-11.206c0-.944.051-.988,1.012-.993.59,0,1.18,0,1.769,0,1.18,0,1.182,0,1.182,1.152q0,3.932,0,7.864,0,5.046,0,10.092c0,1-.044,1.038-1.031,1.042-.786,0-1.575-.034-2.359.011a1.306,1.306,0,0,1-1.359-.763c-2.2-3.822-4.447-7.622-6.678-11.428a2.054,2.054,0,0,0-.594-.694c-.018.238-.053.477-.053.715q0,5.537,0,11.075c0,1.074-.014,1.084-1.113,1.085-.677,0-1.354,0-2.031,0-.819-.007-.881-.069-.885-.914-.005-1.136,0-2.272,0-3.408q0-7.372,0-14.745c0-1.05.03-1.078,1.054-1.081.852,0,1.7.02,2.555-.007a1.11,1.11,0,0,1,1.1.643q3.356,5.78,6.746,11.541c.16.273.329.542.494.812l.156-.042" transform="translate(-745.278 -1.736)" fill="#fff"></path><path d="M707.991,15.354c0-1.812-.012-3.624,0-5.436a8.031,8.031,0,0,1,15.982-.95,24.476,24.476,0,0,1,.115,2.874c.013,3.122.006,6.244,0,9.366,0,.949-.041.985-1.008.989-.742,0-1.485-.023-2.227.006-.6.024-.816-.238-.8-.82.026-.829-.011-1.659.009-2.488.013-.535-.222-.745-.744-.743q-3.307.014-6.615,0c-.551,0-.8.206-.781.775.024.829-.013,1.659.009,2.488.015.548-.185.806-.76.789-.872-.025-1.746-.013-2.62-.006-.43,0-.627-.156-.623-.622.017-2.073.008-4.147.008-6.22h.045m7.967-1.167c1.112,0,2.224-.012,3.336.005.551.008.791-.21.778-.776-.024-1.09.061-2.186-.033-3.268a5.431,5.431,0,0,0-.577-2.045,3.919,3.919,0,0,0-4.288-1.919,3.983,3.983,0,0,0-3.19,3.682c-.092,1.171-.019,2.353-.055,3.529-.018.607.25.81.823.8,1.068-.021,2.137-.006,3.2-.007" transform="translate(-615.144 -1.779)" fill="#fff"></path><path d="M432.151,22.109c-1.419,0-2.838,0-4.258,0-.8,0-.871-.07-.879-.852-.008-.742-.005-1.485,0-2.227,0-.882.056-.939.923-.941q3.963-.008,7.926,0a1.936,1.936,0,0,0,1.811-.965,1.977,1.977,0,0,0-1.682-3.017c-1.374-.055-2.751,0-4.126-.029a6.047,6.047,0,0,1-.082-12.093c2.88-.072,5.764-.011,8.646-.023.531,0,.749.214.736.745-.021.829-.027,1.66,0,2.488.021.6-.233.8-.817.8-2.533-.017-5.066-.007-7.6-.006-.284,0-.568-.008-.851.011a2.053,2.053,0,0,0-2,2.025,2.02,2.02,0,0,0,2,2.016c1.265.042,2.532.014,3.8.017a6.031,6.031,0,0,1,.708,12.039c-1.418.044-2.838.007-4.257.007Z" transform="translate(-370.062 -1.691)" fill="#fff"></path><path d="M6.245,22.109c-1.4,0-2.8,0-4.194,0-.871,0-.913-.05-.917-.944,0-.743.031-1.487-.01-2.227-.035-.637.225-.845.841-.84,2.49.02,4.98.007,7.47.006.262,0,.525.006.786-.011A1.968,1.968,0,0,0,12.1,16.11a1.946,1.946,0,0,0-1.8-1.986c-1.417-.063-2.839-.008-4.258-.047a5.864,5.864,0,0,1-5.164-2.95A6.007,6.007,0,0,1,5.9,2.01c2.88-.1,5.765-.019,8.648-.029.493,0,.721.192.71.7-.017.851-.022,1.7,0,2.555.017.578-.248.76-.793.757-2.555-.014-5.111-.006-7.666,0-.284,0-.569-.009-.851.016A2.054,2.054,0,0,0,4.011,8.028,2.021,2.021,0,0,0,6,10.06c1.287.042,2.577.014,3.865.018A6.019,6.019,0,0,1,10.439,22.1c-1.4.034-2.8.006-4.193.007" transform="translate(0 -1.702)" fill="#fff"></path><path d="M575.42,5.941c-.287-.22-.491-.374-.693-.531a6.424,6.424,0,0,0-10.145,6.823,6.477,6.477,0,0,0,6.035,4.622,6.073,6.073,0,0,0,4.226-1.495c.426-.37.66-.366.94.142.422.764.878,1.511,1.363,2.237.33.493.227.791-.231,1.136a10.412,10.412,0,0,1-14.321-1.962A9.927,9.927,0,0,1,561.272,6.18,10.037,10.037,0,0,1,570.438.014a9.9,9.9,0,0,1,6.507,2.015c.436.319.533.609.22,1.084-.595.9-1.141,1.842-1.745,2.827" transform="translate(-486.83 0)" fill="#fff"></path><path d="M314.34,12.07q0-4.521,0-9.041c0-.909.06-.962.971-.967.7,0,1.4-.006,2.1,0,.819.008.889.074.89.915q.006,6.88,0,13.759c0,1.446,0,1.446,1.475,1.446q3.833,0,7.666,0c.882,0,.943.064.95.922.006.743.007,1.485,0,2.228-.009.787-.085.869-.87.87q-5.5,0-11.007,0h-.983c-1.179,0-1.18,0-1.182-1.153q-.006-3.866-.01-7.731,0-.622,0-1.245" transform="translate(-273.137 -1.788)" fill="#fff"></path><path d="M148.288,19.613a6.444,6.444,0,1,1,5.139-2.558l2.466,2.466a9.891,9.891,0,1,0-2.474,2.128l-2.567-2.568a6.421,6.421,0,0,1-2.564.532" transform="translate(-120.241 -2.833)" fill="#00e8b4"></path><path d="M192.048,53.033a3.9,3.9,0,1,1-3.9-3.9,3.9,3.9,0,0,1,3.9,3.9" transform="translate(-160.104 -42.696)" fill="#c74ae3"></path></g></svg>